# xmcd
#
# Track frame offsets:
#	150
#	14009
#	27179
#	39670
#	49917
#	64066
#	76802
#	90484
#	107429
#	118373
#	130232
#	145885
#	159511
#	177025
#	186923
#
# Disc length: 2649
#
# Revision: 2
# Processed by: cddbd v1.5.1PL0 Copyright (c) Steve Scherf et al.
# Submitted via: Grip 3.0.6
# Normalized: r1:DSETVAR1
#
DISCID=c70a570f
DTITLE=Various Artist - The Blues Disc 4
DYEAR=2003
DGENRE=Blues
TTITLE0=Muddy Waters - Forty days And Forty Nights
TTITLE1=Memphis Slim - Memphis Slim USA
TTITLE2=Mamie Smith - Lovin' Sam From Alabam
TTITLE3=John Lee Hooker - Want Ad
TTITLE4=Ray Charles - Blues Is My Middle Name
TTITLE5=Dianah Washington - All Or Nothing Blues
TTITLE6=Lightnin' Hopkins - Mojo Hand
TTITLE7=Otis Spann - It Must Have Been The Devil
TTITLE8=Robert Johnson - Love In Vain
TTITLE9=Sonny Boy Williamson - 99
TTITLE10=Josh White - Lord I Want To Die Easy
TTITLE11=Lowell Fulson - Baby, Don't You Hear Me Calling
TTITLE12=Joe Turner - Piney Brown Blues
TTITLE13=Jimmy Rushing - She's Mine She's Yours
TTITLE14=Charlie Brown - Trouble Blues
EXTD=
EXTT0=
EXTT1=
EXTT2=
EXTT3=
EXTT4=
EXTT5=
EXTT6=
EXTT7=
EXTT8=
EXTT9=
EXTT10=
EXTT11=
EXTT12=
EXTT13=
EXTT14=
PLAYORDER=
